<?xml version="1.0" encoding="UTF-8" standalone="no"?>
<svg width="41" height="40" xmlns="http://www.w3.org/2000/svg">
<g style="fill:black;fill-opacity:1;stroke:none;stroke-width:1;stroke-opacity:0;fill-rule:nonzero;fill:none;">
<g style="fill:#503E96;">
  <path d="M7.76932 19.5278C7.24874 19.6771 6.7664 19.8949 6.32931 20.1687C6.68657 12.6516 12.8943 6.66666 20.4999 6.66666C28.1056 6.66666 34.3134 12.6516 34.6706 20.1689C34.2334 19.895 33.7511 19.6772 33.2305 19.5279C30.2415 18.6708 27.1237 20.399 26.2667 23.388L24.5187 29.4837C23.6617 32.4727 25.3899 35.5905 28.3788 36.4475C31.3678 37.3046 34.4856 35.5764 35.3426 32.5874L37.0793 26.531C37.6896 24.7484 38.0201 22.8378 38.0201 20.8535C38.0201 11.1774 30.1761 3.33333 20.4999 3.33333C10.8238 3.33333 2.97974 11.1774 2.97974 20.8535C2.97974 22.8375 3.31014 24.7476 3.92021 26.5299L5.65715 32.5873C6.51422 35.5763 9.63202 37.3045 12.621 36.4474C15.6099 35.5904 17.3381 32.4726 16.4811 29.4836L14.7331 23.3879C13.8761 20.3989 10.7583 18.6707 7.76932 19.5278Z"/>
</g>
</g>
</svg>
