<?xml version="1.0" encoding="UTF-8" standalone="no"?>
<svg width="38" height="30" xmlns="http://www.w3.org/2000/svg">
<g style="fill:black;fill-opacity:1;stroke:none;stroke-width:1;stroke-opacity:0;fill-rule:nonzero;fill:none;">
<g style="fill-rule:evenodd;clip-rule:evenodd;fill:#503E96;">
  <path d="M11.931 6.79017e-07C10.5894 -1.97855e-05 9.48211 -3.66755e-05 8.58013 0.0736583C7.6433 0.1502 6.78213 0.314474 5.97323 0.726626C4.71882 1.36578 3.69895 2.38565 3.05979 3.64007C2.64764 4.44896 2.48337 5.31013 2.40683 6.24696C2.33313 7.14896 2.33315 8.25623 2.33317 9.59786L2.33317 20.4459C1.33683 21.0223 0.666504 22.0995 0.666504 23.3333C0.666504 27.0152 3.65127 30 7.33317 30L30.6665 30C34.3484 30 37.3332 27.0152 37.3332 23.3333C37.3332 22.0995 36.6628 21.0223 35.6665 20.4459V9.5978C35.6665 8.2562 35.6665 7.14894 35.5928 6.24696C35.5163 5.31013 35.352 4.44896 34.9399 3.64006C34.3007 2.38565 33.2809 1.36578 32.0264 0.726626C31.2175 0.314474 30.3564 0.1502 29.4195 0.0736583C28.5176 -3.66755e-05 27.4103 -1.97855e-05 26.0687 6.79017e-07L11.931 6.79017e-07ZM13.1665 20H5.6665V9.66667C5.6665 8.23904 5.6678 7.26855 5.72909 6.5184C5.78879 5.78771 5.897 5.41403 6.02982 5.15337C6.34939 4.52616 6.85933 4.01623 7.48654 3.69665C7.7472 3.56383 8.12087 3.45562 8.85157 3.39592C9.60172 3.33463 10.5722 3.33334 11.9998 3.33334L15.6665 3.33334C15.6665 4.25381 16.4127 5 17.3332 5H20.6665C21.587 5 22.3332 4.25381 22.3332 3.33334H25.9998C27.4275 3.33334 28.398 3.33463 29.1481 3.39592C29.8788 3.45562 30.2525 3.56383 30.5131 3.69665C31.1403 4.01622 31.6503 4.52616 31.9699 5.15337C32.1027 5.41403 32.2109 5.78771 32.2706 6.5184C32.3319 7.26855 32.3332 8.23904 32.3332 9.66667V20L23.9998 20C23.5578 20 23.1339 20.1756 22.8213 20.4882L21.6428 21.6667H15.5235L14.345 20.4882C14.0325 20.1756 13.6085 20 13.1665 20Z"/>
</g>
</g>
</svg>
