<?xml version="1.0" encoding="UTF-8" standalone="no"?>
<svg width="41" height="40" xmlns="http://www.w3.org/2000/svg">
<g style="fill:black;fill-opacity:1;stroke:none;stroke-width:1;stroke-opacity:0;fill-rule:nonzero;fill:none;">
<g style="fill:#503E96;">
  <path d="M18 28.3333C18.4593 28.3333 18.8333 28.7062 18.8333 29.1681C18.8333 29.63 18.4593 30.0029 18 30.0029C17.5407 30.0029 17.1667 29.63 17.1667 29.1681C17.1667 28.7062 17.5407 28.3333 18 28.3333Z"/>
</g>
<g style="fill-rule:evenodd;clip-rule:evenodd;fill:#503E96;">
  <path d="M22.1667 5.40227V1.66891C21.8872 1.66653 21.5905 1.66661 21.2722 1.66671L17.762 1.66674C15.9557 1.66673 14.4988 1.66671 13.319 1.76311C12.1042 1.86236 11.0372 2.07204 10.0501 2.57502C8.48207 3.37397 7.20723 4.64881 6.40828 6.21682C5.9053 7.20397 5.69562 8.27096 5.59637 9.48571C5.49997 10.6654 5.49998 12.1223 5.5 13.9285L5.5 26.0714C5.49998 27.8777 5.49997 29.3346 5.59637 30.5144C5.69562 31.7293 5.9053 32.7961 6.40828 33.7833C7.20723 35.3513 8.48207 36.6261 10.0501 37.4251C11.0372 37.9281 12.1042 38.1378 13.319 38.2371C14.4987 38.3334 15.9557 38.3334 17.762 38.3334H23.2382C25.0445 38.3334 26.5013 38.3334 27.681 38.2371C28.8958 38.1378 29.9628 37.9281 30.95 37.4251C32.518 36.6261 33.7928 35.3513 34.5917 33.7833C35.0947 32.7961 35.3043 31.7293 35.4037 30.5144C35.5 29.3348 35.5 27.8776 35.5 26.0714V15.8951C35.5002 15.5767 35.5002 15.2798 35.4978 15.0001H31.7645C30.4229 15.0001 29.3156 15.0001 28.4137 14.9265C27.4768 14.8499 26.6157 14.6856 25.8067 14.2735C24.5523 13.6343 23.5325 12.6145 22.8933 11.36C22.4812 10.5512 22.3168 9.68997 22.2403 8.75316C22.1667 7.85116 22.1667 6.74389 22.1667 5.40227ZM23.8333 21.7054C23.8333 20.4339 23.1999 19.2592 22.1667 18.5579V29.1681C22.1667 31.4692 20.3021 33.3362 18 33.3362C15.6979 33.3362 13.8333 31.4692 13.8333 29.1681C13.8333 26.867 15.6979 25 18 25C18.2854 25 18.5641 25.0287 18.8333 25.0834V18.036C18.8333 15.7818 21.2053 14.3125 23.2237 15.3223C25.6405 16.5314 27.1667 19.0027 27.1667 21.7054C27.1667 22.7904 26.9438 23.8639 26.4986 24.8515C26.1204 25.6907 25.1335 26.0644 24.2943 25.6861C23.4551 25.3079 23.0815 24.321 23.4597 23.4818C23.7041 22.9397 23.8333 22.3348 23.8333 21.7054Z"/>
</g>
<g style="fill:#503E96;">
  <path d="M25.5 5.33344V2.13757C26.0555 2.33266 26.5895 2.58631 27.0927 2.89474C27.9358 3.41136 28.6437 4.11956 29.6661 5.1424L32.022 7.49829C33.0462 8.52182 33.755 9.23031 34.272 10.074C34.5805 10.5773 34.8342 11.1113 35.0292 11.6668H31.8333C30.4057 11.6668 29.4352 11.6655 28.685 11.6042C27.9543 11.5445 27.5807 11.4363 27.32 11.3035C26.6928 10.9839 26.1828 10.4739 25.8633 9.84674C25.7305 9.58607 25.6223 9.21241 25.5627 8.48171C25.5013 7.73156 25.5 6.76107 25.5 5.33344Z"/>
</g>
</g>
</svg>
