<?xml version="1.0" encoding="UTF-8" standalone="no"?>
<svg width="35" height="34" xmlns="http://www.w3.org/2000/svg">
<g style="fill:black;fill-opacity:1;stroke:none;stroke-width:1;stroke-opacity:0;fill-rule:nonzero;fill:none;">
<g style="fill:#503E96;">
  <path d="M19.9845 0.715552C18.3667 0.210274 16.6334 0.210274 15.0156 0.715552C14.0001 1.03275 13.1228 1.59234 12.2151 2.32228C11.335 3.03006 10.328 3.98104 9.0819 5.15797L4.5546 9.43371C3.46049 10.4664 2.70325 11.1812 2.14986 12.045C1.6609 12.8082 1.29974 13.646 1.0806 14.5256C0.83258 15.521 0.832893 16.5623 0.833344 18.0668L0.833316 24.4669C0.832663 26.0374 0.832201 27.1496 1.08894 28.1078C1.78244 30.696 3.80405 32.7176 6.39224 33.4111C7.35039 33.6678 8.46262 33.6674 10.0331 33.6667C10.5872 33.667 11.1561 33.6978 11.6961 33.5531C12.8464 33.2449 13.7449 32.3464 14.0531 31.1961C14.1696 30.7614 14.1681 30.2817 14.1669 29.8903L14.1667 25.3333C14.1667 24.4955 14.1719 24.2706 14.1975 24.1089C14.3669 23.0392 15.2059 22.2002 16.2756 22.0308C16.4373 22.0052 16.6622 22 17.5001 22C18.3379 22 18.5628 22.0052 18.7245 22.0308C19.7942 22.2002 20.6332 23.0392 20.8026 24.1089C20.8282 24.2706 20.8334 24.4955 20.8334 25.3333L20.8332 29.8903C20.832 30.2817 20.8305 30.7614 20.947 31.1961C21.2552 32.3464 22.1537 33.2449 23.304 33.5531C23.844 33.6978 24.4129 33.667 24.967 33.6667C26.5374 33.6674 27.6497 33.6678 28.6079 33.4111C31.1961 32.7176 33.2177 30.696 33.9112 28.1078C34.1679 27.1497 34.1674 26.0374 34.1668 24.4669L34.1668 18.0668C34.1672 16.5623 34.1675 15.521 33.9195 14.5256C33.7004 13.646 33.3392 12.8082 32.8502 12.045C32.2969 11.1812 31.5396 10.4664 30.4455 9.43373L25.9182 5.15802C24.6721 3.98106 23.6652 3.03007 22.785 2.32228C21.8773 1.59234 21.0001 1.03275 19.9845 0.715552Z"/>
</g>
</g>
</svg>
