<?xml version="1.0" encoding="UTF-8" standalone="no"?>
<svg width="28" height="28" xmlns="http://www.w3.org/2000/svg">
<g style="fill:black;fill-opacity:1;stroke:none;stroke-width:1;stroke-opacity:0;fill-rule:nonzero;fill:none;">
<g style="fill-rule:evenodd;clip-rule:evenodd;fill:#82C358;">
  <path d="M8.01443 1.56167C7.65065 1.66561 7.54382 1.69493 7.44357 1.71439C6.99604 1.80127 6.53371 1.77197 6.10073 1.62928C5.87342 1.55438 5.65564 1.44955 5.43593 1.35505C5.01963 1.17568 4.5947 0.992579 4.20571 0.93196C3.62618 0.841647 3.05639 0.920276 2.54894 1.13316C1.68927 1.49382 1.00851 2.23979 0.762399 3.20247C0.664887 3.58388 0.665789 4.04658 0.666672 4.49988L0.666838 18.5896C0.666823 19.8487 0.666811 20.8743 0.734846 21.707C0.805162 22.5676 0.954747 23.3389 1.3208 24.0573C1.89604 25.1863 2.81392 26.1042 3.9429 26.6794C4.66131 27.0455 5.43257 27.1951 6.29321 27.2654C7.12591 27.3334 8.15155 27.3334 9.41061 27.3334H23.3335C25.5426 27.3334 27.3335 25.5425 27.3335 23.3334L27.3335 14.7575C27.3335 14.4211 27.3336 14.0932 27.3109 13.8157C27.286 13.511 27.2273 13.1513 27.0429 12.7894C26.7872 12.2876 26.3792 11.8797 25.8775 11.624C25.5156 11.4396 25.1559 11.3809 24.8511 11.356C24.5736 11.3333 24.2459 11.3333 23.9094 11.3334L22.0002 11.3334L22.0003 4.49988C22.0012 4.04659 22.0021 3.58387 21.9046 3.20247C21.5132 1.67154 20.0226 0.688647 18.4613 0.93196C18.0723 0.992579 17.6474 1.17568 17.2311 1.35505C17.0114 1.44955 16.7936 1.55438 16.5663 1.62928C16.1333 1.77197 15.671 1.80127 15.2234 1.71439C15.1232 1.69493 15.0164 1.66561 14.6526 1.56167L13.3681 1.19465C12.8007 1.03235 12.3717 0.909622 11.926 0.859794C11.5322 0.815778 11.1348 0.815778 10.741 0.859794C10.2953 0.909622 9.86626 1.03235 9.29894 1.19465L8.01443 1.56167ZM22.0002 14.0001V23.3334C22.0002 24.0698 22.5971 24.6667 23.3335 24.6667C24.0699 24.6667 24.6668 24.0698 24.6668 23.3334L24.6516 14.0153C24.6516 14.0153 22.8834 14.0001 22.0002 14.0001ZM7.3335 7.33329C6.59712 7.33329 6.00016 7.93025 6.00016 8.66663C6.00016 9.40301 6.59712 9.99996 7.3335 9.99996H15.3335C16.0699 9.99996 16.6668 9.40301 16.6668 8.66663C16.6668 7.93025 16.0699 7.33329 15.3335 7.33329H7.3335ZM7.3335 12.6666C6.59712 12.6666 6.00016 13.2636 6.00016 14C6.00016 14.7363 6.59712 15.3333 7.3335 15.3333H15.3335C16.0699 15.3333 16.6668 14.7363 16.6668 14C16.6668 13.2636 16.0699 12.6666 15.3335 12.6666H7.3335ZM7.3335 18C6.59712 18 6.00016 18.5969 6.00016 19.3333C6.00016 20.0697 6.59712 20.6666 7.3335 20.6666H11.3335C12.0699 20.6666 12.6668 20.0697 12.6668 19.3333C12.6668 18.5969 12.0699 18 11.3335 18H7.3335Z"/>
</g>
</g>
</svg>
